<svg width="33" height="33" viewBox="0 0 33 33" fill="none" xmlns="http://www.w3.org/2000/svg">
<circle cx="16.5" cy="16.5" r="16.5" fill="#1DBDE9"/>
<g clip-path="url(#clip0_13_203)">
<path d="M20.6848 24.9994C20.5525 24.9994 20.4201 24.9581 20.3069 24.8767L16.0327 21.8261L13.7404 23.562C13.5609 23.6977 13.3288 23.732 13.1202 23.6541C12.9116 23.575 12.7534 23.3933 12.6973 23.1679L11.5455 18.5772L7.43293 16.9227C7.17386 16.8189 7.00227 16.558 7.00002 16.2666C6.99778 15.9751 7.16601 15.7119 7.42396 15.6033L23.0636 9.05606C23.1342 9.02419 23.2105 9.00531 23.2856 9.00177C23.3125 8.99941 23.3394 8.99941 23.3675 9.00177C23.5245 9.01121 23.6781 9.07848 23.7981 9.20239C23.8105 9.21537 23.8228 9.22835 23.834 9.24251C23.9339 9.36289 23.9888 9.50804 23.9989 9.65673C24.0011 9.6945 24.0011 9.73226 23.9989 9.77003C23.9967 9.79717 23.9933 9.82431 23.9877 9.85027L21.3476 24.4247C21.305 24.6595 21.1536 24.8543 20.945 24.9463C20.862 24.9829 20.7745 25.0006 20.6871 25.0006L20.6848 24.9994ZM16.4085 20.3828L20.216 23.1006L22.2706 11.7597L14.8518 19.2711L16.3916 20.3698C16.3972 20.3745 16.404 20.3781 16.4096 20.3828H16.4085ZM13.239 19.7786L13.7482 21.8119L14.8473 20.9799L13.4095 19.9532C13.3422 19.906 13.285 19.847 13.239 19.7786ZM9.52456 16.2489L12.3486 17.3853C12.5504 17.4667 12.703 17.6461 12.759 17.8656L13.1168 19.2947C13.1336 19.1295 13.2043 18.9749 13.3198 18.8581L20.3887 11.7007L9.52456 16.2489Z" fill="white"/>
</g>
<defs>
<clipPath id="clip0_13_203">
<rect width="17" height="16" fill="white" transform="translate(7 9)"/>
</clipPath>
</defs>
</svg>
