<svg width="33" height="33" viewBox="0 0 33 33" fill="none" xmlns="http://www.w3.org/2000/svg">
<circle cx="16.5" cy="16.5" r="16.5" fill="#6FDD65"/>
<g clip-path="url(#clip0_13_202)">
<path d="M26 16.2559C26 21.3649 21.8258 25.5132 16.6751 25.5132C15.042 25.5132 13.5037 25.092 12.1671 24.3619L7 26L8.68627 21.0316C7.83444 19.6384 7.3447 18.0037 7.3447 16.2569C7.34421 11.1459 11.5204 7 16.6751 7C21.8298 7 26 11.1459 26 16.2559ZM16.6751 8.47418C12.3519 8.47418 8.83031 11.963 8.83031 16.2569C8.83031 17.962 9.38611 19.5395 10.3234 20.822L9.34638 23.7043L12.3603 22.7521C13.5971 23.5657 15.0807 24.0356 16.6751 24.0356C20.9953 24.0356 24.5159 20.5453 24.5159 16.2509C24.5159 11.9565 20.9953 8.47418 16.6751 8.47418ZM21.3813 18.3892C21.3261 18.2963 21.1736 18.2402 20.9486 18.1185C20.7137 18.0052 19.5941 17.4628 19.3786 17.3883C19.1735 17.3123 19.0215 17.2751 18.8695 17.5006C18.71 17.7246 18.2769 18.2412 18.1448 18.3892C18.0037 18.5397 17.8726 18.5585 17.6461 18.4458C17.4231 18.334 16.682 18.0936 15.8103 17.3178C15.1329 16.7198 14.6709 15.9782 14.5388 15.7483C14.4027 15.5198 14.5229 15.3976 14.6372 15.2858C14.7439 15.183 14.8671 15.0181 14.9799 14.8865C15.0981 14.7559 15.1348 14.6625 15.2103 14.512C15.2863 14.357 15.2476 14.2264 15.1915 14.1092C15.1353 13.9959 14.6744 12.8818 14.4862 12.4269C14.2939 11.9734 14.1072 12.0484 13.9746 12.0484C13.8419 12.0484 13.688 12.0295 13.5325 12.0295C13.377 12.0295 13.1337 12.0846 12.9216 12.3151C12.715 12.5396 12.1219 13.0885 12.1219 14.2065C12.1219 15.3246 12.9404 16.4044 13.0577 16.5529C13.1719 16.7034 14.6372 19.0637 16.9637 19.9726C19.2872 20.8816 19.2872 20.5811 19.7099 20.5433C20.1226 20.5051 21.0639 19.9925 21.2521 19.4665C21.4374 18.9321 21.4374 18.4826 21.3808 18.3882L21.3813 18.3892Z" fill="white"/>
</g>
<defs>
<clipPath id="clip0_13_202">
<rect width="19" height="19" fill="white" transform="translate(7 7)"/>
</clipPath>
</defs>
</svg>
