<svg width="985" height="61" viewBox="0 0 985 61" fill="none" xmlns="http://www.w3.org/2000/svg">
<line x1="984.182" y1="2.18557e-08" x2="984.182" y2="31" stroke="#C6CEE4"/>
<line x1="984.682" y1="31.5" x2="3.68213" y2="31.4999" stroke="#C6CEE4"/>
<path d="M3.32857 60.3536C3.52384 60.5488 3.84042 60.5488 4.03568 60.3536L7.21766 57.1716C7.41292 56.9763 7.41292 56.6597 7.21766 56.4645C7.0224 56.2692 6.70582 56.2692 6.51055 56.4645L3.68213 59.2929L0.853701 56.4645C0.658439 56.2692 0.341856 56.2692 0.146594 56.4645C-0.0486683 56.6597 -0.0486683 56.9763 0.146594 57.1716L3.32857 60.3536ZM3.68213 31L3.18213 31L3.18213 60L3.68213 60L4.18213 60L4.18213 31L3.68213 31Z" fill="#C6CEE4"/>
</svg>
